<?xml version="1.0" encoding="utf-8"?>
<!-- Generator: Adobe Illustrator 25.2.3, SVG Export Plug-In . SVG Version: 6.00 Build 0)  -->
<svg version="1.1" id="Layer_1" xmlns="http://www.w3.org/2000/svg" xmlns:xlink="http://www.w3.org/1999/xlink" x="0px" y="0px"
	 viewBox="0 0 512 512" style="enable-background:new 0 0 512 512;" xml:space="preserve">
<style type="text/css">
	.st0{fill-rule:evenodd;clip-rule:evenodd;fill:#F3D55B;}
	.st1{fill-rule:evenodd;clip-rule:evenodd;fill:#F0C419;}
	.st2{fill-rule:evenodd;clip-rule:evenodd;fill:#F29C1F;}
	.st3{fill-rule:evenodd;clip-rule:evenodd;fill:#CF976A;}
	.st4{fill-rule:evenodd;clip-rule:evenodd;fill:#E64C3C;}
	.st5{fill-rule:evenodd;clip-rule:evenodd;fill:#955BA5;}
	.st6{fill-rule:evenodd;clip-rule:evenodd;fill:#7ED09E;}
	.st7{fill-rule:evenodd;clip-rule:evenodd;fill:#B0D3F0;}
	.st8{fill-rule:evenodd;clip-rule:evenodd;fill:#BDC3C7;}
	.st9{fill-rule:evenodd;clip-rule:evenodd;fill:#FAC176;}
	.st10{fill-rule:evenodd;clip-rule:evenodd;fill:#F5EFCA;}
</style>
<g id="Page-1">
	<g id="_x30_79---Classical-Studies">
		<path id="Path" class="st0" d="M17.7,476.7h476.7c9.8,0,17.7,7.9,17.7,17.7v8.8c0,4.9-4,8.8-8.8,8.8H8.8C4,512,0,508,0,503.2v-8.8
			C0,484.6,7.9,476.7,17.7,476.7z"/>
		<path id="Path_1_" class="st1" d="M35.3,441.4h441.4c9.8,0,17.7,7.9,17.7,17.7v17.7H17.7V459C17.7,449.3,25.6,441.4,35.3,441.4z"
			/>
		<path id="Path_2_" class="st1" d="M485.5,123.6v26.5c0,4.9-4,8.8-8.8,8.8H35.3c-4.9,0-8.8-4-8.8-8.8v-26.5H485.5z"/>
		<path id="Path_3_" class="st2" d="M44.1,406.1h53c4.9,0,8.8,4,8.8,8.8v26.5H35.3v-26.5C35.3,410,39.3,406.1,44.1,406.1z"/>
		<path id="Path_4_" class="st2" d="M35.3,158.9h70.6v26.5c0,4.9-4,8.8-8.8,8.8h-53c-4.9,0-8.8-4-8.8-8.8V158.9z"/>
		<path id="Rectangle" class="st1" d="M44.1,194.2h53v211.9h-53V194.2z"/>
		<path id="Path_5_" class="st2" d="M414.9,406.1h53c4.9,0,8.8,4,8.8,8.8v26.5h-70.6v-26.5C406.1,410,410,406.1,414.9,406.1z"/>
		<path id="Path_6_" class="st2" d="M406.1,158.9h70.6v26.5c0,4.9-4,8.8-8.8,8.8h-53c-4.9,0-8.8-4-8.8-8.8V158.9z"/>
		<path id="Rectangle_1_" class="st1" d="M414.9,194.2h53v211.9h-53V194.2z"/>
		<path id="Path_7_" class="st0" d="M506.3,93.7l-244-92.6c-4-1.5-8.5-1.5-12.5,0L5.7,93.7C2.3,95.1,0,98.3,0,102v12.8
			c0,4.9,4,8.8,8.8,8.8h494.3c4.9,0,8.8-4,8.8-8.8V102C512,98.3,509.7,95.1,506.3,93.7z"/>
		<circle id="Oval" class="st1" cx="256" cy="61.8" r="17.7"/>
		<g id="Page-1_1_">
			<g id="_x30_08---Art" transform="translate(-1)">
				<path id="Path_11_" class="st3" d="M313.7,263h33.4c6.8,0,12.8,4.6,14.4,11.3c11.1,44.6-7.4,91.3-46,116.3
					c-38.6,25-88.8,22.8-125-5.6s-50.5-76.5-35.5-120c15-43.5,55.9-72.6,101.8-72.6c1.3,0,2.7,0,4,0.1c8.1,0.2,14.5,6.8,14.5,14.9
					v40.8c0,2,0.4,4,1.2,5.9L313.7,263z"/>
				<circle id="Oval_5_" class="st4" cx="182.7" cy="300.1" r="14.9"/>
				<circle id="Oval_1_" class="st5" cx="204.4" cy="352.6" r="14.9"/>
				<circle id="Oval_2_" class="st6" cx="257" cy="374.4" r="14.9"/>
				<circle id="Oval_3_" class="st7" cx="309.5" cy="352.6" r="14.9"/>
				<circle id="Oval_4_" class="st0" cx="331.3" cy="300.1" r="14.9"/>
				<path id="Path_10_" class="st8" d="M302.6,274.2c-0.6,0.6-1.3,1.1-2,1.6l-18.7,12.8l-17-17l12.8-18.8c0.5-0.7,1-1.4,1.6-2
					L302.6,274.2z"/>
				<path id="Path_9_" class="st9" d="M361.4,214.4l-57.1,58.1c-0.5,0.6-1.1,1.2-1.7,1.7l-23.4-23.4c0.5-0.6,1.1-1.2,1.7-1.7
					l61.8-53.4c5.2-4.7,13.2-4.4,18.1,0.5C365.8,201.2,366,209.2,361.4,214.4z"/>
				<path id="Path_8_" class="st10" d="M279.9,301.2c-7,14.6-25.6,14.4-34.9,13.4c-3.2-0.3-5.8-2.9-6.2-6.1
					c-0.9-7.7-1.2-22.2,7.4-30.8c7-7.6,18.6-8.8,27.1-2.9S284.6,292,279.9,301.2L279.9,301.2z"/>
			</g>
		</g>
	</g>
</g>
</svg>
