<svg height="512" viewBox="0 0 58 58" width="512" xmlns="http://www.w3.org/2000/svg"><g id="Page-1" fill="none" fill-rule="evenodd"><g id="004---Chemistry"><rect id="Rectangle" fill="#3b97d3" height="4" rx="2" width="16.001" x="32"/><path id="Path" d="m31.9 15 2.5-4.032c.3920025-.6325228.5997896-1.36185557.6-2.106v-4.862h10v4.86c-.0001102.74544464.207673 1.4761489.6 2.11l11.82 19.09c.4882737.7913769.6763384 1.7317007.53 2.65-.3528985 1.9330849-2.0542944 3.3258674-4.019 3.29h-22.968z" fill="#2980ba"/><path id="Path" d="m31.544 23.044 5.1-8.094c.3638154-.5897992 1.0070179-.9492359 1.7-.95h3.32c.6924299.0028728 1.334678.3617761 1.7.95l8.66 14c.3803889.6166654.3975112 1.3908375.0447583 2.0237177s-1.0202093 1.025484-1.7447583 1.0262823h-11.435z" fill="#f0c419"/><rect id="Rectangle" fill="#3b97d3" height="4" rx="2" transform="matrix(-1 0 0 -1 35.999 4)" width="16.001" x="9.999"/><path id="Path" d="m26.1 15-2.5-4.032c-.3920025-.6325228-.5997896-1.36185557-.6-2.106v-4.862h-10v4.86c.0001102.74544464-.207673 1.4761489-.6 2.11l-11.821 19.09c-.48827367.7913769-.67633842 1.7317007-.53 2.65.35295848 1.9334645 2.05491924 3.3263627 4.02 3.29h22.968z" fill="#2980ba"/><path id="Path" d="m22.741 32h-15.062c-.72454905-.0007983-1.39200537-.3934021-1.74475827-1.0262823s-.33563065-1.4070523.04475827-2.0237177l8.66-14c.365322-.5882239 1.0075701-.9471272 1.7-.95h3.32c.6929821.0007641 1.3361846.3602008 1.7.95l5.1 8.094z" fill="#f0c419"/><circle id="Oval" cx="45" cy="26" fill="#f29c1f" r="1"/><circle id="Oval" cx="40" cy="22" fill="#f29c1f" r="1"/><circle id="Oval" cx="13" cy="26" fill="#f29c1f" r="1"/><circle id="Oval" cx="18" cy="22" fill="#f29c1f" r="1"/><path id="Path" d="m34 19v3.665c.0111363 1.2069742.7368905 2.2924637 1.848 2.764 7.3617364 3.2381564 11.4485879 11.1906247 9.7958458 19.0614101s-8.5931522 13.5077008-16.6355901 13.511221c-8.0424378.0035202-14.9877798-5.6273174-16.6474114-13.496653-1.6596315-7.8693356 2.4202568-15.8253785 9.7791557-19.0699781 1.115837-.4727375 1.8459504-1.5612345 1.86-2.773v-3.662z" fill="#2fa8cc"/><rect id="Rectangle" fill="#67b9cc" height="4" rx="2" width="16" x="21" y="15"/><path id="Path" d="m42 41c-.0004196 5.5711832-3.5507111 10.5227571-8.8270735 12.3110754s-11.1056614.0157705-14.4933595-4.4070775c-3.3876981-4.4228479-3.5805823-10.5126303-.479567-15.1409979.2975409-.4548317.7661256-.7702559 1.2994963-.8747461.5333706-.1044902 1.0863359.0108069 1.5335037.3197461.7049341.5360518 1.5717127.815453 2.457.792 2.75 0 2.75-2 5.5-2s2.76 2 5.51 2c.8901388.0226257 1.7612789-.2596392 2.469-.8.8862064-.6362285 2.1203404-.4338968 2.757.452 1.4867718 2.1614945 2.2799642 4.7245456 2.274 7.348z" fill="#f0c419"/><g fill="#f29c1f"><circle id="Oval" cx="22" cy="39" r="1"/><circle id="Oval" cx="29" cy="41" r="1"/><circle id="Oval" cx="24" cy="47" r="1"/><circle id="Oval" cx="36" cy="39" r="1"/><circle id="Oval" cx="34" cy="47" r="1"/></g></g></g></svg>