<svg height="512" viewBox="0 0 58 58" width="512" xmlns="http://www.w3.org/2000/svg"><g id="Page-1" fill="none" fill-rule="evenodd"><g id="034---Computer-Programming" transform="translate(-1)"><path id="Path" d="m59 2.18v39.82h-58v-39.82c-.04521019-1.152631.84774936-2.12595691 2-2.18h54c1.1522506.05404309 2.0452102 1.027369 2 2.18z" fill="#90bae1"/><path id="Path" d="m54.66 0c-1.6 13.77-10.12 42.49-53.66 36.06v-33.88c-.04521019-1.152631.84774936-2.12595691 2-2.18z" fill="#b0d3f0"/><path id="Path" d="m22 19c-.2651948-.0000566-.5195073-.1054506-.707-.293l-6-6c-.3903819-.3904999-.3903819-1.0235001 0-1.414l6-6c.2510745-.25995658.6228779-.3642126.9725073-.27269716.3496295.09151544.6226744.3645604.7141899.71418984.0915154.34962943-.0127406.72143285-.2726972.97250732l-5.293 5.293 5.293 5.293c.2859079.2859943.3714219.7160366.216678 1.0896546-.1547439.3736179-.5192821.6172591-.923678.6173454z" fill="#ecf0f1"/><path id="Path" d="m38 19c-.4043959-.0000863-.7689341-.2437275-.923678-.6173454-.1547439-.373618-.0692299-.8036603.216678-1.0896546l5.293-5.293-5.293-5.293c-.3789722-.39237889-.3735524-1.01608478.0121814-1.40181858.3857338-.38573379 1.0094397-.39115363 1.4018186-.01218142l6 6c.3903819.3904999.3903819 1.0235001 0 1.414l-6 6c-.1874927.1875494-.4418052.2929434-.707.293z" fill="#ecf0f1"/><path id="Path" d="m26 19c-.3687074-.0003134-.7073293-.2034902-.88111-.5286756s-.1545228-.719615.05011-1.0263244l8-12c.306518-.45950088.9274991-.58351798 1.387-.27699996.4595009.30651803.583518.92749905.277 1.38699996l-8 12c-.1857211.2783647-.4983673.4453846-.833.445z" fill="#ecf0f1"/><g fill="#35495e"><path id="Path" d="m12 25h-2c-.55228475 0-1-.4477153-1-1s.44771525-1 1-1h2c.5522847 0 1 .4477153 1 1s-.4477153 1-1 1z"/><path id="Path" d="m50 25h-34c-.5522847 0-1-.4477153-1-1s.4477153-1 1-1h34c.5522847 0 1 .4477153 1 1s-.4477153 1-1 1z"/><path id="Path" d="m12 31h-2c-.55228475 0-1-.4477153-1-1s.44771525-1 1-1h2c.5522847 0 1 .4477153 1 1s-.4477153 1-1 1z"/><path id="Path" d="m50 31h-13c-.5522847 0-1-.4477153-1-1s.4477153-1 1-1h13c.5522847 0 1 .4477153 1 1s-.4477153 1-1 1z"/><path id="Path" d="m33 31h-7c-.5522847 0-1-.4477153-1-1s.4477153-1 1-1h7c.5522847 0 1 .4477153 1 1s-.4477153 1-1 1z"/><path id="Path" d="m22 31h-6c-.5522847 0-1-.4477153-1-1s.4477153-1 1-1h6c.5522847 0 1 .4477153 1 1s-.4477153 1-1 1z"/><path id="Path" d="m12 37h-2c-.55228475 0-1-.4477153-1-1s.44771525-1 1-1h2c.5522847 0 1 .4477153 1 1s-.4477153 1-1 1z"/><path id="Path" d="m50 37h-7c-.5522847 0-1-.4477153-1-1s.4477153-1 1-1h7c.5522847 0 1 .4477153 1 1s-.4477153 1-1 1z"/><path id="Path" d="m39 37h-23c-.5522847 0-1-.4477153-1-1s.4477153-1 1-1h23c.5522847 0 1 .4477153 1 1s-.4477153 1-1 1z"/></g><path id="Path" d="m59 42v3.82c.0452102 1.152631-.8477494 2.1259569-2 2.18h-54c-1.15225064-.0540431-2.04521019-1.027369-2-2.18v-3.82z" fill="#547580"/><path id="Path" d="m38 48 3 6h-11-11l3-6z" fill="#3f5c6c"/><rect id="Rectangle" fill="#547580" height="4" rx="2" width="34" x="13" y="54"/></g></g></svg>