<svg height="512" viewBox="0 0 58 58" width="512" xmlns="http://www.w3.org/2000/svg"><g id="Page-1" fill="none" fill-rule="evenodd"><g id="020---Drama" transform="translate(0 -1)"><path id="Path" d="m40 16.984c6.89-.13 11.22-.96 13.91-1.83.9493466-.3100769 1.989752-.1471005 2.7988052.4384246.8090532.585525 1.2890316 1.5228753 1.2911948 2.5215754v18.92c0 6.866-1.91 19.466-18.84 21.891-.7701005.1000019-1.5498995.1000019-2.32 0-11.44-1.64-16.03-7.925-17.79-13.95z" fill="#3b97d3"/><path id="Path" d="m52.927 29.45c.1490318-.3727905.0776988-.7975763-.1849277-1.1012382s-.6726904-.4354913-1.0630723-.3417618c-2.4057174.678678-4.9522826.678678-7.358 0-.3903819-.0937295-.8004458.0380999-1.0630723.3417618s-.3339595.7284477-.1849277 1.1012382c.7222402 2.1047784 2.7017533 3.5183339 4.927 3.5183339s4.2047598-1.4135555 4.927-3.5183339z" fill="#285680"/><path id="Path" d="m43.8 51.911c.6762302.1519009 1.3798268-.0956915 1.8119079-.6376021s.5167702-1.282976.2180921-1.9083979c-1.162-2.558-3.44-5.4-7.829-5.4s-6.667 2.839-7.829 5.4c-.2986781.6254219-.213989 1.3664873.2180921 1.9083979s1.1356777.789503 1.8119079.6376021c1.8985688-.4525815 3.8465221-.6645784 5.798-.631 1.9521458-.0337464 3.9007815.1782517 5.8.631z" fill="#285680"/><path id="Path" d="m38 40.971c-.5948205-.0002381-1.1760064-.1781805-1.669-.511l-1.946-1.3c-.3189465-.1885554-.5074966-.5380063-.4899783-.908105.0175184-.3700988.2382336-.7001774.5735644-.857763s.7303086-.1168462 1.0264139.105868l1.949 1.3c.3358076.223755.7731924.223755 1.109 0l1.892-1.262c.4595009-.306518 1.080482-.1825009 1.387.277s.1825009 1.080482-.277 1.387l-1.89 1.26c-.4919831.3315725-1.0717145.5087997-1.665.509z" fill="#2980ba"/><path id="Path" d="m18.845 44.918c.7661425.1090007 1.5438575.1090007 2.31 0 16.931-2.418 18.845-15.028 18.845-21.886v-18.918c-.0007189-.99918824-.4804108-1.93746558-1.2899517-2.52314566-.8095409-.58568009-1.8507895-.74776041-2.8000483-.43585434-2.939.945-7.852 1.845-15.91 1.845s-12.971-.9-15.91-1.845c-.9492588-.31190607-1.99050738-.14982575-2.80004829.43585434-.80954092.58568008-1.28923278 1.52395742-1.28995171 2.52314566v18.918c0 6.858 1.914 19.468 18.845 21.886z" fill="#f0c419"/><g fill="#e57e25"><path id="Path" d="m14.927 17.517c.1487659.37287.0773727.7975642-.1851335 1.1012974-.2625062.3037331-.6723803.4358898-1.0628665.3427026-2.4057174-.678678-4.95228262-.678678-7.358 0-.39048623.0931872-.80036029-.0389695-1.06286651-.3427026-.26250622-.3037332-.3338994-.7284274-.18513349-1.1012974.74882796-2.0846185 2.71218102-3.4861027 4.927-3.517 2.214819.0308973 4.178172 1.4323815 4.927 3.517z"/><path id="Path" d="m34.927 17.517c.1487659.37287.0773727.7975642-.1851335 1.1012974-.2625062.3037331-.6723803.4358898-1.0628665.3427026-2.4057174-.678678-4.9522826-.678678-7.358 0-.3904862.0931872-.8003603-.0389695-1.0628665-.3427026-.2625062-.3037332-.3338994-.7284274-.1851335-1.1012974.7232074-2.1037663 2.7023963-3.5162553 4.927-3.5162553s4.2037926 1.412489 4.927 3.5162553z"/><path id="Path" d="m25.8 30.057c.6764087-.1527508 1.3806116.0946041 1.8129177.6367969s.5166288 1.2837964.2170823 1.9092031c-1.163 2.558-3.441 5.397-7.83 5.397s-6.667-2.839-7.829-5.4c-.2995465-.6254067-.2152238-1.3670103.2170823-1.9092031s1.136509-.7895477 1.8129177-.6367969c1.8992185.4527483 3.8478542.6647464 5.8.631 1.9516854.0346448 3.8999782-.1763447 5.799-.628z"/></g><path id="Path" d="m20 27c-.5923594-.0003606-1.1713544-.1760773-1.664-.505l-1.891-1.26c-.297245-.1982824-.4661282-.5400812-.4430331-.8966441s.2346599-.6737195.555-.832c.32034-.1582805.7007881-.1336383.9980331.0646441l1.89 1.26c.3360369.2241995.7739631.2241995 1.11 0l1.89-1.26c.297245-.1982824.6776931-.2229246.9980331-.0646441.3203401.1582805.5319049.4754371.555.832s-.1457881.6983617-.4430331.8966441l-1.891 1.265c-.4932032.3271563-1.072156.5011205-1.664.5z" fill="#f29c1f"/></g></g></svg>