<svg height="512" viewBox="0 0 58 58" width="512" xmlns="http://www.w3.org/2000/svg"><g id="Page-1" fill="none" fill-rule="evenodd"><g id="010---Woodworking"><path id="Path" d="m57.43 19.98-37.45 37.45c-.7631507.7597403-1.9968493.7597403-2.76 0l-1.26-1.26-1.41-1.41-2.12-2.12-1.41-1.41-4.25-4.25-1.41-1.41-2.12-2.12-1.41-1.41-1.26-1.26c-.75974028-.7631507-.75974028-1.9968493 0-2.76l26.62-26.62 10.83-10.83c.7631507-.75974028 1.9968493-.75974028 2.76 0l1.25 1.26h.01l4.94 4.94v.01l4.24 4.24h.01l4.94 4.94v.01l1.26 1.25c.7597403.7631507.7597403 1.9968493 0 2.76z" fill="#cb8252"/><g fill="#a56a43"><path id="Path" d="m43.45 3.24-9.5 9.5c-.190164.1849909-.4447023.2889572-.71.29-.2623399-.0011046-.5137394-.1052558-.7-.29-.1918336-.1864103-.3000725-.4425137-.3000725-.71s.1082389-.5235897.3000725-.71l9.49-9.49h.01z"/><path id="Path" d="m46.98 6.77v.01l-5.25 5.25c-.3943361.3867403-1.0256639.3867403-1.42 0-.3877236-.3900375-.3877236-1.0199625 0-1.41l5.26-5.26z"/><path id="Path" d="m52.64 12.43-8.1 8.11c-.1911916.1834154-.4450715.2871128-.71.29-.2652977-.0010428-.519836-.1050091-.71-.29-.3899779-.3930079-.3899779-1.0269921 0-1.42l8.1-8.1h.01z"/><path id="Path" d="m40.739 31c-.4041391-.0000856-.7684991-.2434208-.9234088-.616692s-.0699134-.8030919.2154088-1.089308l6.641-6.66c.3918367-.379565 1.0155809-.3750451 1.4018758.0101585.3862949.3852037.3925793 1.0089326.0141242 1.4018415l-6.641 6.66c-.1875737.1881613-.4423149.2939437-.708.294z"/><path id="Path" d="m56.17 15.96v.01l-5.25 5.25c-.1875741.1889094-.4438082.2935684-.71.29-.2632254.0033976-.5162972-.1014464-.7-.29-.3877236-.3900375-.3877236-1.0199625 0-1.41l5.25-5.26z"/><path id="Path" d="m32.17 24c-.4043959-.0000863-.7689341-.2437275-.923678-.6173454-.1547439-.373618-.0692299-.8036603.216678-1.0896546l6.73-6.73c.3923789-.3789722 1.0160848-.3735524 1.4018186.0121814s.3911536 1.0094397.0121814 1.4018186l-6.73 6.73c-.1874927.1875494-.4418052.2929434-.707.293z"/><path id="Path" d="m16.27 39.9c-.4045779.0003183-.7694864-.2431745-.9244868-.6168833-.1550005-.3737088-.06955-.8039938.2164868-1.0901167l8.731-8.73c.3923789-.3789722 1.0160848-.3735524 1.4018186.0121814s.3911536 1.0094397.0121814 1.4018186l-8.73 8.73c-.1874927.1875494-.4418052.2929434-.707.293z"/><path id="Path" d="m10.84 35.84-7.6 7.61-1.41-1.41v-.01l7.6-7.6c.39676028-.3397768.9881942-.3169323 1.3575632.0524368.3693691.369369.3922136.9608029.0524368 1.3575632z"/><path id="Path" d="m12.03 41.73-5.25 5.25h-.01l-1.41-1.41 5.26-5.26c.3900375-.3877236 1.0199625-.3877236 1.41 0 .3899779.3930079.3899779 1.0269921 0 1.42z"/><path id="Path" d="m20.04 45.04-7.61 7.6-1.41-1.41v-.01l7.6-7.6c.3921222-.3921221 1.0278778-.3921221 1.42 0 .3921221.3921222.3921221 1.0278778 0 1.42z"/><path id="Path" d="m23.34 48.38c-.4043959-.0000863-.7689341-.2437275-.923678-.6173454-.1547439-.373618-.0692299-.8036603.216678-1.0896546l6.38-6.38c.3923789-.3789722 1.0160848-.3735524 1.4018186.0121814s.3911536 1.0094397.0121814 1.4018186l-6.38 6.38c-.1874927.1875494-.4418052.2929434-.707.293z"/><path id="Path" d="m21.22 50.92-5.25 5.25h-.01l-1.41-1.41 5.26-5.25c.3967603-.3397768.9881942-.3169323 1.3575632.0524368.3693691.369369.3922136.9608029.0524368 1.3575632z"/></g><path id="Shape" d="m16.11.31c-.4275287-.41017243-1.1024713-.41017243-1.53 0l-14.28 14.3c-.18707417.189622-.2944259.4436878-.3.71v2.87c.00219269.5624197.4575803 1.0178073 1.02 1.02l2.27-.01c.5624197.0021927 1.01780731.4575803 1.02 1.02l-.01 2.27c-.00053232.2706837.10676071.5304341.29816333.7218367s.45115301.2986956.72183667.2981633l2.27-.01c.26969357-.0002833.52827611.1074126.71803665.2990519.18976053.1916394.29490367.4512704.29196335.7209481v2.27c-.00221585.560346.44965934 1.0166952 1.01 1.02l2.28-.01c.5603407.0033048 1.0122158.459654 1.01 1.02v2.27c-.0054233.270408.0989161.5314814.2892175.723667s.4503342.299092.7207825.296333h2.27c.2696777-.0029403.5293087.1022028.7209481.2919634.1916393.1897605.2993352.448343.2990519.7180366l-.01 2.28c-.0002833.2696936.1074126.5282761.2990519.7180366.1916394.1897606.4512704.2949037.7209481.2919634h2.27c.2696777-.0029403.5293087.1022028.7209481.2919634.1916393.1897605.2993352.448343.2990519.7180366l-.01 2.28c-.0002833.2696936.1074126.5282761.2990519.7180366.1916394.1897606.4512704.2949037.7209481.2919634h2.27c.2706837-.0005323.5304341.1067607.7218367.2981633s.2986956.451153.2981633.7218367l-.01 2.27c.0021927.5624197.4575803 1.0178073 1.02 1.02l3.21-.01 11.12-19.65zm.31 10.11c-.7842106.7840675-2.0555393.7839901-2.8396544-.0001728-.7841152-.78416288-.7841152-2.05549152 0-2.83965442.7841151-.78416289 2.0554438-.78424025 2.8396544-.00017278.7697627.79018744.7697627 2.04981256 0 2.84z" fill="#95a5a5" fill-rule="nonzero"/><path id="Shape" d="m57.26 40.06-14.69-14.7c-.1881405-.1924127-.4458913-.3008755-.715-.3008755s-.5268595.1084628-.715.3008755l-11.82 11.83c-.2302581.2227723-.3383372.5432828-.29.86l1.31 9.2c.0307696.21481.1287908.4143533.28.57l9.44 9.44c.4744192.4753368 1.1184207.7424556 1.79.7424556s1.3155808-.2671188 1.79-.7424556c.4783302-.4722133.7452501-1.1178708.74-1.79.0035373-.6747324-.262914-1.3228572-.74-1.8l-.35-.35c-.192-.1904-.3-.4496-.3-.72s.108-.5296.3-.72l8.59-8.6c.4006947-.390213 1.0393053-.390213 1.44 0l.35.36c.9919186.9899801 2.5980814.9899801 3.59 0 .9866295-.9894008.9866295-2.5905992 0-3.58zm-9.29 1.41-6.5 6.49c-.4669155.4703463-1.1022514.7348744-1.765.7348744s-1.2980845-.2645281-1.765-.7348744l-.05-.04c-.4702085-.4690213-.7344689-1.1058637-.7344689-1.77s.2642604-1.3009787.7344689-1.77l6.49-6.5c.4690213-.4702085 1.1058637-.7344689 1.77-.7344689s1.3009787.2642604 1.77.7344689l.05.05c.9699707.9806688.9699707 2.5593312 0 3.54z" fill="#2980ba" fill-rule="nonzero"/></g></g></svg>