<svg height="512" viewBox="0 0 42 58" width="512" xmlns="http://www.w3.org/2000/svg"><g id="Page-1" fill="none" fill-rule="evenodd"><g id="033---Psychology"><path id="Path" d="m40 50v6c-.0032948 1.1032019-.8967981 1.9967052-2 2h-34c-2.209139 0-4-1.790861-4-4s1.790861-4 4-4z" fill="#f5efca"/><path id="Path" d="m42 2v46c-.0032948 1.1032019-.8967981 1.9967052-2 2h-36c-2.209139 0-4 1.790861-4 4v-50c0-2.209139 1.790861-4 4-4h36c1.1032019.0032948 1.9967052.89679813 2 2z" fill="#e64c3c"/><path id="Rectangle" d="m4 0h2v50h-2z" fill="#c03a2b"/><path id="Path" d="m16 55h-10c-.55228475 0-1-.4477153-1-1s.44771525-1 1-1h10c.5522847 0 1 .4477153 1 1s-.4477153 1-1 1z" fill="#f9eab0"/><path id="Path" d="m34 55h-14c-.5522847 0-1-.4477153-1-1s.4477153-1 1-1h14c.5522847 0 1 .4477153 1 1s-.4477153 1-1 1z" fill="#f9eab0"/><path id="Path" d="m26 38c.0020027.8615814.5531596 1.6259595 1.37 1.9.3908301.1513828.6434313.5330913.63.952v1.148c0 .5522847-.4477153 1-1 1h-6c-.5522847 0-1-.4477153-1-1v-1.15c-.0134313-.4189087.2391699-.8006172.63-.952.8161453-.2738046 1.3671412-1.0371551 1.37-1.898v-7h-4c-3.3137085 0-6-2.6862915-6-6v-12c-.0053577-.86049-.5552548-1.623121-1.37-1.9-.3909133-.1501511-.64378705-.5314687-.63-.95v-1.15c0-.55228475.4477153-1 1-1h2c1.6568542 0 3 1.34314575 3 3v12c0 2.209139 1.790861 4 4 4h2v-14c-.0053577-.86049-.5552548-1.623121-1.37-1.9-.3909133-.1501511-.643787-.5314687-.63-.95v-1.15c0-.55228475.4477153-1 1-1h6c.5522847 0 1 .44771525 1 1v1.15c.013787.4185313-.2390867.7998489-.63.95-.8147452.276879-1.3646423 1.03951-1.37 1.9v14h2c2.209139 0 4-1.790861 4-4v-12c0-1.65685425 1.3431458-3 3-3h2c.5522847 0 1 .44771525 1 1v1.15c.013787.4185313-.2390867.7998489-.63.95-.8147452.276879-1.3646423 1.03951-1.37 1.9v12c0 3.3137085-2.6862915 6-6 6h-4z" fill="#f0c419"/></g></g></svg>