<svg height="512" viewBox="0 0 58 58" width="512" xmlns="http://www.w3.org/2000/svg"><g id="Page-1" fill="none" fill-rule="evenodd"><g id="092---Arithmatic"><g fill="#805333"><path id="Rectangle" d="m7 8h44v2h-44z"/><path id="Rectangle" d="m7 20h44v2h-44z"/><path id="Rectangle" d="m7 32h44v2h-44z"/><path id="Rectangle" d="m7 44h44v2h-44z"/></g><circle id="Oval" cx="14" cy="9" fill="#e64c3c" r="3"/><circle id="Oval" cx="38" cy="9" fill="#c03a2b" r="3"/><circle id="Oval" cx="32" cy="9" fill="#e64c3c" r="3"/><circle id="Oval" cx="26" cy="9" fill="#c03a2b" r="3"/><circle id="Oval" cx="44" cy="9" fill="#e64c3c" r="3"/><path id="Path" d="m4.5 0c1.38071187 0 2.5 1.11928813 2.5 2.5v51.5h-5v-51.5c0-1.38071187 1.11928813-2.5 2.5-2.5z" fill="#a56a43"/><path id="Path" d="m53.5 0c1.3807119 0 2.5 1.11928813 2.5 2.5v51.5h-5v-51.5c0-1.38071187 1.1192881-2.5 2.5-2.5z" fill="#a56a43"/><path id="Path" d="m2 54h54c1.1045695 0 2 .8954305 2 2v2h-58v-2c0-1.1045695.8954305-2 2-2z" fill="#cb8252"/><circle id="Oval" cx="14" cy="21" fill="#f0c419" r="3"/><circle id="Oval" cx="38" cy="21" fill="#f29c1f" r="3"/><circle id="Oval" cx="32" cy="21" fill="#f0c419" r="3"/><circle id="Oval" cx="20" cy="21" fill="#f29c1f" r="3"/><circle id="Oval" cx="44" cy="21" fill="#f0c419" r="3"/><circle id="Oval" cx="14" cy="33" fill="#e64c3c" r="3"/><circle id="Oval" cx="38" cy="33" fill="#c03a2b" r="3"/><circle id="Oval" cx="26" cy="33" fill="#e64c3c" r="3"/><circle id="Oval" cx="20" cy="33" fill="#c03a2b" r="3"/><circle id="Oval" cx="44" cy="33" fill="#e64c3c" r="3"/><circle id="Oval" cx="14" cy="45" fill="#f0c419" r="3"/><circle id="Oval" cx="32" cy="45" fill="#f29c1f" r="3"/><circle id="Oval" cx="26" cy="45" fill="#f0c419" r="3"/><circle id="Oval" cx="20" cy="45" fill="#f29c1f" r="3"/><circle id="Oval" cx="44" cy="45" fill="#f0c419" r="3"/></g></g></svg>