<svg height="512" viewBox="0 0 58 58" width="512" xmlns="http://www.w3.org/2000/svg"><g id="Page-1" fill="none" fill-rule="evenodd"><g id="043---Passed-Assignment" fill-rule="nonzero"><path id="Shape" d="m34 46c-.0047636 4.9379223 3.0207054 9.3728945 7.62 11.17-.3762807.5197153-.9783709.8281936-1.62.83h-38c-1.10320187-.0032948-1.9967052-.8967981-2-2v-54c.0032948-1.10320187.89679813-1.9967052 2-2h29v9c.0032948 1.1032019.8967981 1.9967052 2 2h9v23.69c-4.7961217 1.6909113-8.0029288 6.2245348-8 11.31z" fill="#f4edc7"/><path id="Shape" d="m42 11h-9c-1.1032019-.0032948-1.9967052-.8967981-2-2v-9z" fill="#f8e8ab"/><path id="Shape" d="m32 19c-.2651948-.0000566-.5195073-.1054506-.707-.293l-1-1c-.3789722-.3923789-.3735524-1.0160848.0121814-1.4018186s1.0094397-.3911536 1.4018186-.0121814l.293.293 2.293-2.293c.3923789-.3789722 1.0160848-.3735524 1.4018186.0121814s.3911536 1.0094397.0121814 1.4018186l-3 3c-.1874927.1875494-.4418052.2929434-.707.293z" fill="#f85360"/><path id="Shape" d="m25 18h-20c-.55228475 0-1-.4477153-1-1s.44771525-1 1-1h20c.5522847 0 1 .4477153 1 1s-.4477153 1-1 1z" fill="#464f5e"/><path id="Shape" d="m32 25c-.2651948-.0000566-.5195073-.1054506-.707-.293l-1-1c-.3789722-.3923789-.3735524-1.0160848.0121814-1.4018186s1.0094397-.3911536 1.4018186-.0121814l.293.293 2.293-2.293c.3923789-.3789722 1.0160848-.3735524 1.4018186.0121814s.3911536 1.0094397.0121814 1.4018186l-3 3c-.1874927.1875494-.4418052.2929434-.707.293z" fill="#f85360"/><path id="Shape" d="m25 24h-20c-.55228475 0-1-.4477153-1-1s.44771525-1 1-1h20c.5522847 0 1 .4477153 1 1s-.4477153 1-1 1z" fill="#464f5e"/><path id="Shape" d="m32 31c-.2651948-.0000566-.5195073-.1054506-.707-.293l-1-1c-.3789722-.3923789-.3735524-1.0160848.0121814-1.4018186s1.0094397-.3911536 1.4018186-.0121814l.293.293 2.293-2.293c.3923789-.3789722 1.0160848-.3735524 1.4018186.0121814s.3911536 1.0094397.0121814 1.4018186l-3 3c-.1874927.1875494-.4418052.2929434-.707.293z" fill="#f85360"/><path id="Shape" d="m25 30h-20c-.55228475 0-1-.4477153-1-1s.44771525-1 1-1h20c.5522847 0 1 .4477153 1 1s-.4477153 1-1 1z" fill="#464f5e"/><path id="Shape" d="m32 37c-.2651948-.0000566-.5195073-.1054506-.707-.293l-1-1c-.3789722-.3923789-.3735524-1.0160848.0121814-1.4018186s1.0094397-.3911536 1.4018186-.0121814l.293.293 2.293-2.293c.3923789-.3789722 1.0160848-.3735524 1.4018186.0121814s.3911536 1.0094397.0121814 1.4018186l-3 3c-.1874927.1875494-.4418052.2929434-.707.293z" fill="#f85360"/><path id="Shape" d="m25 36h-20c-.55228475 0-1-.4477153-1-1s.44771525-1 1-1h20c.5522847 0 1 .4477153 1 1s-.4477153 1-1 1z" fill="#464f5e"/><g fill="#f85360"><path id="Shape" d="m20 52c-.3808256.0020788-.7297741-.2123306-.9-.553l-3.1-6.211-3.1 6.211c-.2468713.4942949-.8477051.6948713-1.342.448s-.6948713-.8477051-.448-1.342l4-8c.187968-.3152706.5279475-.5083906.895-.5083906s.707032.19312.895.5083906l4 8c.1553431.3108588.1381628.6800764-.0453763.9751664-.183539.2950901-.5071168.4737357-.8546237.4718336z"/><path id="Rectangle-path" d="m13.5 47h5v2h-5z"/><path id="Shape" d="m24 48c-.5522847 0-1-.4477153-1-1v-4c0-.5522847.4477153-1 1-1s1 .4477153 1 1v4c0 .5522847-.4477153 1-1 1z"/><path id="Shape" d="m26 46h-4c-.5522847 0-1-.4477153-1-1s.4477153-1 1-1h4c.5522847 0 1 .4477153 1 1s-.4477153 1-1 1z"/></g><path id="Shape" d="m58 46c0 6.627417-5.372583 12-12 12-1.4994541.0039198-2.985936-.2777651-4.38-.83-4.6612503-1.8311768-7.6951603-6.3645348-7.6105169-11.3718593.0846434-5.0073244 3.2700393-9.4355518 7.9905169-11.1081407 1.2834682-.4593213 2.6368202-.6927745 4-.69 6.627417 0 12 5.372583 12 12z" fill="#5bb86b"/><path id="Shape" d="m44 52c-.2651948-.0000566-.5195073-.1054506-.707-.293l-3-3c-.3789722-.3923789-.3735524-1.0160848.0121814-1.4018186s1.0094397-.3911536 1.4018186-.0121814l2.157 2.157 6.317-9.023c.1998278-.3047965.5496556-.4767398.9130419-.4487678.3633864.027972.6827779.251429.833604.5832174s.109199.7193592-.1086459 1.0115504l-7 10c-.1694679.242281-.4374646.3971479-.732.423-.0289118.0028297-.0579505.0041648-.087.004z" fill="#fff"/></g></g></svg>