<svg height="512" viewBox="0 0 54 60" width="512" xmlns="http://www.w3.org/2000/svg"><g id="Page-1" fill="none" fill-rule="evenodd"><g id="007---Science" transform="translate(-1)"><path id="Shape" d="m28 60c-7.29 0-13-13.178-13-30 0-8.875 1.643-17.225 4.508-22.91.0242503-.04902659.0526892-.09586729.085-.14l3.529-4.83c.0435344-.05963668.0935021-.11429929.149-.163 1.279979-1.21485485 2.9648562-1.91210684 4.729-1.957 7.29 0 13 13.178 13 30s-5.71 30-13 30zm-6.743-51.937c-2.706 5.414-4.257 13.402-4.257 21.937 0 15.178 5.037 28 11 28s11-12.822 11-28-5.037-28-11-28c-1.2418823.04658325-2.4248535.54144179-3.33 1.393z" fill="#285680" fill-rule="nonzero"/><circle id="Oval" cx="28" cy="30" fill="#4fba6f" r="8"/><circle id="Oval" cx="22" cy="5" fill="#f0c419" r="3"/><path id="Shape" d="m12.339 48.79c-.0334056.0004549-.0668064-.0012152-.1-.005l-5.95-.58c-.07167606-.0066968-.14241944-.0211137-.211-.043-1.75579312-.4847862-3.26416494-1.6139225-4.224-3.162-.952899-1.7861016-1.1335601-3.8842996-.5-5.807 1.712-6.4 9.606-14.425 20.113-20.453 14.66-8.411 29.016-10.056 32.679-3.74.9546201 1.7850217 1.1370973 3.8829673.505 5.806-1.712 6.4-9.606 14.425-20.113 20.453-7.721 4.426-15.791 7.17-22.142 7.532zm-5.739-2.564 5.761.561c6.041-.362 13.757-3.007 21.185-7.265 9.91-5.687 17.616-13.422 19.173-19.235.4838573-1.4097577.3756164-2.955438-.3-4.284-3-5.17-16.719-3.122-29.959 4.474-9.916 5.688-17.622 13.423-19.179 19.236-.48409033 1.4109262-.37511466 2.9578755.302 4.287.69789265 1.0875923 1.77192276 1.8800321 3.017 2.226z" fill="#3b97d3" fill-rule="nonzero"/><circle id="Oval" cx="9.348" cy="47.696" fill="#f0c419" r="3"/><path id="Shape" d="m43.661 48.79h-.061c-6.351-.362-14.421-3.106-22.141-7.531-10.504-6.03-18.398-14.059-20.11-20.459-.63002283-1.9212619-.4475896-4.0165346.505-5.8 3.664-6.313 18.02-4.667 32.684 3.746 10.507 6.025 18.401 14.054 20.113 20.454.6300228 1.9212619.4475896 4.0165346-.505 5.8-.9611156 1.547547-2.4705835 2.6756305-4.227 3.159-.0685806.0218863-.1393239.0363032-.211.043l-5.95.58c-.0321376.0046628-.0645327.0073346-.097.008zm-32.791-35.647c-3.539 0-6.163.923-7.286 2.859-.67612156 1.3287792-.78437314 2.8749726-.3 4.285 1.554 5.813 9.26 13.548 19.174 19.236 7.427 4.257 15.143 6.9 21.184 7.264l5.761-.561c1.2439698-.3466266 2.3168378-1.1389969 3.014-2.226.6756164-1.328562.7838573-2.8742423.3-4.284-1.555-5.816-9.261-13.551-19.175-19.239-8.283-4.753-16.756-7.334-22.672-7.334z" fill="#2980ba" fill-rule="nonzero"/><circle id="Oval" cx="46.652" cy="47.696" fill="#f0c419" r="3"/></g></g></svg>