<svg height="512" viewBox="0 0 48 58" width="512" xmlns="http://www.w3.org/2000/svg"><g id="Page-1" fill="none" fill-rule="evenodd"><g id="058---Biochemistry"><path id="Path" d="m29 19v3.665c.0111363 1.2069742.7368905 2.2924637 1.848 2.764 7.3617364 3.2381564 11.4485879 11.1906247 9.7958458 19.0614101s-8.5931522 13.5077008-16.6355901 13.511221c-8.0424378.0035202-14.9877798-5.6273174-16.64741138-13.496653-1.65963157-7.8693356 2.42025682-15.8253785 9.77915568-19.0699781 1.115837-.4727375 1.8459504-1.5612345 1.86-2.773v-3.662z" fill="#3b97d3"/><path id="Path" d="m37 41c.0001201 1.6470718-.31206 3.2792308-.92 4.81-1.5288135-2.4469782-4.5874515-3.4525002-7.27-2.39-1.1299588-1.5224912-2.9140078-2.4201261-4.81-2.4201261s-3.6800412.8976349-4.81 2.4201261c-2.6848328-1.0640825-5.7463705-.053396-7.27 2.4-.3729266-.9257932-.6347547-1.8925431-.78-2.88-.4809775-3.2097791.2536482-6.4834996 2.06-9.18.2985027-.4529387.7668648-.7665497 1.2993567-.8700375.5324918-.1034879 1.0842228.0118719 1.5306433.3200375.7075272.5330612 1.574399.8114469 2.46.79 2.75 0 2.75-2 5.5-2s2.76 2 5.51 2c.8907723.0248881 1.7629638-.257603 2.47-.8.8893756-.6342753 2.1244096-.4284363 2.76.46 1.480994 2.1610687 2.27243 4.7201612 2.27 7.34z" fill="#2980ba"/><path id="Rectangle" d="m23 18.999h2v24.001h-2z" fill="#4c8056"/><rect id="Rectangle" fill="#2980ba" height="4" rx="2" width="16" x="16" y="15"/><path id="Path" d="m48 3c0 3.314-5 9-13 9-3.3137085 0-5.9999999-2.68629154-5.9999999-6s2.6862914-5.99999995 5.9999999-6c6 0 7 3 13 3z" fill="#4fba6f"/><path id="Path" d="m0 3c0 3.314 5 9 13 9 3.3137085 0 5.9999999-2.68629154 5.9999999-6s-2.6862914-5.99999995-5.9999999-6c-6 0-7 3-13 3z" fill="#4fba6f"/><path id="Path" d="m38 5h-10c-1.5737865 0-3.0557281.74097079-4 2-.9442719-1.25902921-2.4262135-2-4-2h-10c-.55228474.00000002-.99999997.44771526-.99999997 1s.44771523.99999998.99999997 1h10c1.6568542 0 3 1.34314575 3 3v5h2v-5c0-1.65685425 1.3431458-3 3-3h10c.5522847 0 1-.44771525 1-1s-.4477153-1-1-1z" fill="#24ae5f"/><path id="Path" d="m36.08 45.81c-1.9710632 4.9434006-6.7547428 8.187388-12.0766123 8.1895908-5.3218696.0022027-10.1082329-3.2378235-12.0833877-8.1795908 1.5236295-2.453396 4.5851672-3.4640825 7.27-2.4 1.1299588-1.5224912 2.9140078-2.4201261 4.81-2.4201261s3.6800412.8976349 4.81 2.4201261c2.6825485-1.0625002 5.7411865-.0569782 7.27 2.39z" fill="#cb8252"/></g></g></svg>