<svg height="512" viewBox="0 0 58 58" width="512" xmlns="http://www.w3.org/2000/svg"><g id="Page-1" fill="none" fill-rule="evenodd"><g id="040---Accounting"><path id="Path" d="m8 4.17v11.83h-6c-1.10320187-.0032948-1.9967052-.8967981-2-2v-10c.00275483-2.2079969 1.7920031-3.99724517 4-4 .13 0 .26.01.39.02 2.08668538.25821962 3.64328459 2.04766193 3.61 4.15z" fill="#f29c1f"/><path id="Path" d="m43 4v20l-11 30h-22c-1.10320187-.0032948-1.9967052-.8967981-2-2v-47.83c.03328459-2.10233807-1.52331462-3.89178038-3.61-4.15-.13-.01-.26-.02-.39-.02h35c2.209139 0 4 1.790861 4 4z" fill="#f0c419"/><rect id="Rectangle" fill="#95a5a5" height="34" rx="3" width="26" x="32" y="24"/><rect id="Rectangle" fill="#65ddb9" height="8" rx="2" width="18" x="36" y="28"/><g fill="#7f8c8d"><path id="Path" d="m39 42h-2c-.5522847 0-1-.4477153-1-1s.4477153-1 1-1h2c.5522847 0 1 .4477153 1 1s-.4477153 1-1 1z"/><path id="Path" d="m46 42h-2c-.5522847 0-1-.4477153-1-1s.4477153-1 1-1h2c.5522847 0 1 .4477153 1 1s-.4477153 1-1 1z"/><path id="Path" d="m53 42h-2c-.5522847 0-1-.4477153-1-1s.4477153-1 1-1h2c.5522847 0 1 .4477153 1 1s-.4477153 1-1 1z"/><path id="Path" d="m39 46h-2c-.5522847 0-1-.4477153-1-1s.4477153-1 1-1h2c.5522847 0 1 .4477153 1 1s-.4477153 1-1 1z"/><path id="Path" d="m46 46h-2c-.5522847 0-1-.4477153-1-1s.4477153-1 1-1h2c.5522847 0 1 .4477153 1 1s-.4477153 1-1 1z"/><path id="Path" d="m53 46h-2c-.5522847 0-1-.4477153-1-1s.4477153-1 1-1h2c.5522847 0 1 .4477153 1 1s-.4477153 1-1 1z"/><path id="Path" d="m39 50h-2c-.5522847 0-1-.4477153-1-1s.4477153-1 1-1h2c.5522847 0 1 .4477153 1 1s-.4477153 1-1 1z"/><path id="Path" d="m46 50h-2c-.5522847 0-1-.4477153-1-1s.4477153-1 1-1h2c.5522847 0 1 .4477153 1 1s-.4477153 1-1 1z"/><path id="Path" d="m53 50h-2c-.5522847 0-1-.4477153-1-1s.4477153-1 1-1h2c.5522847 0 1 .4477153 1 1s-.4477153 1-1 1z"/><path id="Path" d="m39 54h-2c-.5522847 0-1-.4477153-1-1s.4477153-1 1-1h2c.5522847 0 1 .4477153 1 1s-.4477153 1-1 1z"/><path id="Path" d="m46 54h-2c-.5522847 0-1-.4477153-1-1s.4477153-1 1-1h2c.5522847 0 1 .4477153 1 1s-.4477153 1-1 1z"/><path id="Path" d="m53 54h-2c-.5522847 0-1-.4477153-1-1s.4477153-1 1-1h2c.5522847 0 1 .4477153 1 1s-.4477153 1-1 1z"/></g><path id="Shape" d="m14 18c0-.5522847-.4477153-1-1-1s-1 .4477153-1 1c.0029983 2.3751008 1.6735832 4.4215673 4 4.9v1.1c0 .5522847.4477153 1 1 1s1-.4477153 1-1v-1.1c2.330324-.4731925 4.0050126-2.5221184 4.0050126-4.9s-1.6746886-4.4268075-4.0050126-4.9v-5.916c1.1943509.42225455 1.9947486 1.54921457 2 2.816 0 .5522847.4477153 1 1 1s1-.4477153 1-1c-.0029983-2.37510083-1.6735832-4.42156735-4-4.9v-1.1c0-.55228475-.4477153-1-1-1s-1 .44771525-1 1v1.1c-2.330324.47319247-4.0050126 2.52211839-4.0050126 4.9 0 2.3778816 1.6746886 4.4268075 4.0050126 4.9v5.917c-1.1946951-.4223781-1.9951701-1.5498471-2-2.817zm6 0c-.0052514 1.2667854-.8056491 2.3937454-2 2.816v-5.632c1.1943509.4222546 1.9947486 1.5492146 2 2.816zm-6-8c.0052514-1.26678543.8056491-2.39374545 2-2.816v5.632c-1.1943509-.4222546-1.9947486-1.5492146-2-2.816z" fill="#e57e25" fill-rule="nonzero"/><path id="Path" d="m26 9h12c.5522847 0 1-.44771525 1-1s-.4477153-1-1-1h-12c-.5522847 0-1 .44771525-1 1s.4477153 1 1 1z" fill="#35495e"/><path id="Path" d="m38 13h-12c-.5522847 0-1 .4477153-1 1s.4477153 1 1 1h12c.5522847 0 1-.4477153 1-1s-.4477153-1-1-1z" fill="#35495e"/><path id="Path" d="m38 19h-12c-.5522847 0-1 .4477153-1 1s.4477153 1 1 1h12c.5522847 0 1-.4477153 1-1s-.4477153-1-1-1z" fill="#35495e"/><path id="Path" d="m28 28h-15c-.5522847 0-1 .4477153-1 1s.4477153 1 1 1h15c.5522847 0 1-.4477153 1-1s-.4477153-1-1-1z" fill="#35495e"/><path id="Path" d="m28 34h-15c-.5522847 0-1 .4477153-1 1s.4477153 1 1 1h15c.5522847 0 1-.4477153 1-1s-.4477153-1-1-1z" fill="#35495e"/><path id="Path" d="m28 40h-15c-.5522847 0-1 .4477153-1 1s.4477153 1 1 1h15c.5522847 0 1-.4477153 1-1s-.4477153-1-1-1z" fill="#35495e"/><path id="Path" d="m28 46h-15c-.5522847 0-1 .4477153-1 1s.4477153 1 1 1h15c.5522847 0 1-.4477153 1-1s-.4477153-1-1-1z" fill="#35495e"/></g></g></svg>