<svg height="512" viewBox="0 0 58 58" width="512" xmlns="http://www.w3.org/2000/svg"><g id="Page-1" fill="none" fill-rule="evenodd"><g id="093---Algebra"><path id="Path" d="m47 42h8c1.6568542 0 3-1.3431458 3-3v-32c0-1.65685425-1.3431458-3-3-3h-52c-1.65685425 0-3 1.34314575-3 3v32c0 1.6568542 1.34314575 3 3 3z" fill="#ecf0f1"/><path id="Path" d="m28 0h2c1.1045695 0 2 .8954305 2 2v2h-6v-2c0-1.1045695.8954305-2 2-2z" fill="#a56a43"/><rect id="Rectangle" fill="#cb8252" height="5" rx="1" width="36" x="11" y="40"/><path id="Path" d="m32 45v10c0 1.6568542-1.3431458 3-3 3s-3-1.3431458-3-3v-10z" fill="#a56a43"/><path id="Path" d="m16.31 45-4.91 8.5c-.5358984.9288905-.5355318 2.0731192.0009618 3.0016661s1.5276081 1.5003437 2.6000001 1.5c1.072392-.0003436 2.0631397-.5727755 2.5990381-1.5016661l6.64-11.5z" fill="#a56a43"/><path id="Path" d="m41.69 45 4.91 8.5c.5358984.9288905.5355317 2.0731192-.0009619 3.0016661s-1.527608 1.5003436-2.6 1.5c-1.072392-.0003437-2.0631397-.5727755-2.5990381-1.5016661l-6.64-11.5z" fill="#a56a43"/><path id="Path" d="m10.672 13.26c-.1963576-.178433-.4555761-.271519-.7205892-.2587653-.26501314.0127536-.51409499.1303013-.6924108.3267653-2.12696658 2.3847997-3.28890025 5.4766342-3.259 8.672-.02990025 3.1953658 1.13203342 6.2872003 3.259 8.672.37113536.409243 1.003757.4401353 1.413.069.409243-.3711354.4401353-1.003757.069-1.413-1.7935486-2.0165781-2.77085605-4.6293869-2.741-7.328-.02985605-2.6986131.9474514-5.3114219 2.741-7.328.370649-.4090421.339765-1.0410454-.069-1.412z" fill="#547580"/><path id="Path" d="m37.328 13.26c-.408765.3709546-.439649 1.0029579-.069 1.412 1.7935486 2.0165781 2.770856 4.6293869 2.741 7.328.029856 2.6986131-.9474514 5.3114219-2.741 7.328-.3711353.409243-.340243 1.0418646.069 1.413.409243.3711353 1.0418646.340243 1.413-.069 2.1269666-2.3847997 3.2889003-5.4766342 3.259-8.672.0299003-3.1953658-1.1320334-6.2872003-3.259-8.672-.1783158-.196464-.4273977-.3140117-.6924108-.3267653-.2650131-.0127537-.5242316.0803323-.7205892.2587653z" fill="#547580"/><g fill="#35495e"><path id="Path" d="m18.707 18.293c-.3904999-.3903819-1.0235001-.3903819-1.414 0l-2.293 2.293-2.293-2.293c-.3923789-.3789722-1.0160848-.3735524-1.4018186.0121814s-.3911536 1.0094397-.0121814 1.4018186l2.293 2.293-2.293 2.293c-.2599566.2510745-.3642126.6228779-.2726972.9725073.0915155.3496295.3645604.6226744.7141899.7141899.3496294.0915154.7214328-.0127406.9725073-.2726972l2.293-2.293 2.293 2.293c.3923789.3789722 1.0160848.3735524 1.4018186-.0121814s.3911536-1.0094397.0121814-1.4018186l-2.293-2.293 2.293-2.293c.3903819-.3904999.3903819-1.0235001 0-1.414z"/><path id="Path" d="m27 21h-1v-1c0-.5522847-.4477153-1-1-1s-1 .4477153-1 1v1h-1c-.5522847 0-1 .4477153-1 1s.4477153 1 1 1h1v1c0 .5522847.4477153 1 1 1s1-.4477153 1-1v-1h1c.5522847 0 1-.4477153 1-1s-.4477153-1-1-1z"/><path id="Path" d="m36.5 18.132c-.4794043-.2737673-1.0899643-.1072509-1.364.372l-.976 1.707-1.36-1.811c-.2143594-.2858125-.5649147-.4355547-.9196152-.3928203-.3547006.0427344-.6596589.2714531-.8.6-.1403412.3285469-.0947442.7070078.1196152.9928203l1.875 2.5-1.943 3.4c-.2737673.4794043-.1072509 1.0899643.372 1.364.1504281.0883254.3215597.1352486.496.136.3583279.001065.6898369-.1896767.869-.5l2.26-3.955.009-.015 1.731-3.03c.1329896-.2302229.1688234-.5039283.0995822-.7606274-.0692413-.2566992-.2378566-.4752571-.4685822-.6073726z"/><path id="Path" d="m46 20h5c.5522847 0 1-.4477153 1-1s-.4477153-1-1-1h-5c-.5522847 0-1 .4477153-1 1s.4477153 1 1 1z"/><path id="Path" d="m51 22h-5c-.5522847 0-1 .4477153-1 1s.4477153 1 1 1h5c.5522847 0 1-.4477153 1-1s-.4477153-1-1-1z"/></g></g></g></svg>