<svg height="512" viewBox="0 0 58 58" width="512" xmlns="http://www.w3.org/2000/svg"><g id="Page-1" fill="none" fill-rule="evenodd"><g id="038---Economics"><path id="Path" d="m46.92 41.42 9.94 9.94c.9824804.9824804 1.3661827 2.4144767 1.00657 3.7565699-.3596128 1.3420932-1.4079069 2.3903873-2.7500001 2.7500001-1.3420932.3596127-2.7740895-.0240896-3.7565699-1.00657l-9.94-9.94z" fill="#7f8c8d"/><circle id="Oval" cx="26" cy="26" fill="#95a5a5" r="26"/><path id="Path" d="m48 26c.0058788 9.8656872-6.5529523 18.5304343-16.0497476 21.2030166-9.4967954 2.6725824-19.6119543-1.2997808-24.75223792-9.7205469-5.14028363-8.4207662-4.05017313-19.2331557 2.66754824-26.4583919 6.71772138-7.22523617 17.42224418-9.09854862 26.19443728-4.5840778 7.3254627 3.7732679 11.9321253 11.3198609 11.94 19.56z" fill="#90bae1"/><path id="Path" d="m38.5 16.5c.0027659 7.66983-3.9905579 14.7870545-10.5380112 18.7816954-6.5474533 3.9946408-14.7030975 4.2895753-21.5219888.7783046-4.37753004-8.5013235-2.76002983-18.8570663 4.0014519-25.6185481 6.7614818-6.76148173 17.1172246-8.37898194 25.6185481-4.0014519 1.6071772 3.10956302 2.4439799 6.5596593 2.44 10.06z" fill="#b0d3f0"/><path id="Path" d="m40 18h-4c-.5522847 0-1 .4477153-1 1s.4477153 1 1 1h1.585l-5.085 5.083-1.082-1.083c-.7941296-.7551757-2.0408704-.7551757-2.835 0l-9.583 9.583-1.582-1.583c-.7941296-.7551757-2.0408704-.7551757-2.835 0l-8.194 8.2 1.411 1.411 8.2-8.194 1.582 1.583c.7941296.7551757 2.0408704.7551757 2.835 0l9.583-9.583 1.079 1.08c.7941296.7551757 2.0408704.7551757 2.835 0l5.086-5.083v1.586c0 .5522847.4477153 1 1 1s1-.4477153 1-1v-4c0-.5522847-.4477153-1-1-1z" fill="#4fba6f"/><path id="Shape" d="m20 18.1v-5.916c1.1943509.4222546 1.9947486 1.5492146 2 2.816 0 .5522847.4477153 1 1 1s1-.4477153 1-1c-.0029983-2.3751008-1.6735832-4.4215673-4-4.9v-.1c0-.55228475-.4477153-1-1-1s-1 .44771525-1 1v.1c-2.330324.4731925-4.0050126 2.5221184-4.0050126 4.9s1.6746886 4.4268075 4.0050126 4.9v5.917c-1.1946951-.4223781-1.9951701-1.5498471-2-2.817 0-.5522847-.4477153-1-1-1s-1 .4477153-1 1c.0029983 2.3751008 1.6735832 4.4215673 4 4.9v.1c0 .5522847.4477153 1 1 1s1-.4477153 1-1v-.1c2.330324-.4731925 4.0050126-2.5221184 4.0050126-4.9s-1.6746886-4.4268075-4.0050126-4.9zm-4-3.1c.0052514-1.2667854.8056491-2.3937454 2-2.816v5.632c-1.1943509-.4222546-1.9947486-1.5492146-2-2.816zm4 10.816v-5.632c1.1981296.4174114 2.0009455 1.5472421 2.0009455 2.816s-.8028159 2.3985886-2.0009455 2.816z" fill="#f0c419" fill-rule="nonzero"/><g fill="#ff5364"><path id="Path" d="m17 40v6.07c-1.4134362-.6342094-2.754495-1.4187288-4-2.34v-3.73c0-.5522847.4477153-1 1-1h2c.2652165 0 .5195704.1053568.7071068.2928932s.2928932.4418903.2928932.7071068z"/><path id="Path" d="m25 39v8.97c-1.3483036-.0498831-2.6882698-.2341285-4-.55v-8.42c0-.5522847.4477153-1 1-1h2c.2652165 0 .5195704.1053568.7071068.2928932s.2928932.4418903.2928932.7071068z"/><path id="Path" d="m33 32v14.85c-1.2983803.4468757-2.6384811.7617994-4 .94v-15.79c0-.5522847.4477153-1 1-1h2c.5522847 0 1 .4477153 1 1z"/><path id="Path" d="m41 29v13.07c-1.2118546 1.1439079-2.5544732 2.1408022-4 2.97v-16.04c0-.5522847.4477153-1 1-1h2c.5522847 0 1 .4477153 1 1z"/></g></g></g></svg>