<?xml version="1.0" encoding="utf-8"?>
<!-- Generator: Adobe Illustrator 25.2.3, SVG Export Plug-In . SVG Version: 6.00 Build 0)  -->
<svg version="1.1" id="Layer_1" xmlns="http://www.w3.org/2000/svg" xmlns:xlink="http://www.w3.org/1999/xlink" x="0px" y="0px"
	 viewBox="0 0 512 512" style="enable-background:new 0 0 512 512;" xml:space="preserve">
<style type="text/css">
	.st0{fill-rule:evenodd;clip-rule:evenodd;fill:#F0C419;}
	.st1{fill-rule:evenodd;clip-rule:evenodd;fill:#F5EFCA;}
	.st2{fill-rule:evenodd;clip-rule:evenodd;fill:#F29C1F;}
	.st3{fill-rule:evenodd;clip-rule:evenodd;fill:#F9EAB0;}
</style>
<g id="Page-1">
	<g id="_x30_01---English">
		<path id="Path" class="st0" d="M70.6,476.7V35.3C70.6,15.8,86.4,0,105.9,0h317.8c9.7,0,17.6,7.9,17.7,17.7v406.1
			c0,9.7-7.9,17.6-17.7,17.7L70.6,476.7z"/>
		<path id="Path_1_" class="st1" d="M423.7,441.4v53c0,9.7-7.9,17.6-17.7,17.7H105.9c-19.5,0-35.3-15.8-35.3-35.3
			c0-19.5,15.8-35.3,35.3-35.3H423.7z"/>
		<path id="Rectangle" class="st2" d="M105.9,0h17.7v441.4h-17.7V0z"/>
		<path id="Path_2_" class="st3" d="M211.9,485.5h-88.3c-4.9,0-8.8-4-8.8-8.8s4-8.8,8.8-8.8h88.3c4.9,0,8.8,4,8.8,8.8
			S216.7,485.5,211.9,485.5z"/>
		<path id="Path_3_" class="st3" d="M370.8,485.5H247.2c-4.9,0-8.8-4-8.8-8.8s4-8.8,8.8-8.8h123.6c4.9,0,8.8,4,8.8,8.8
			S375.6,485.5,370.8,485.5z"/>
	</g>
</g>
</svg>
