<svg height="512" viewBox="0 0 40 58" width="512" xmlns="http://www.w3.org/2000/svg"><g id="Page-1" fill="none" fill-rule="evenodd"><g id="006---Geography" transform="translate(-1)"><path id="Rectangle" d="m23 46h4v7.91h-4z" fill="#f29c1f"/><path id="Path" d="m39.32 42.23c.0018785.6524533-.3203799 1.2632454-.86 1.63-8.5270175 5.7856488-19.7956272 5.4823625-27.9990927-.7535747-8.20346555-6.2359372-11.51066107-17.0125787-8.21738237-26.7767006 3.29327871-9.76412179 12.45192667-16.33623808 22.75647507-16.3297247h1c1.1045695 0 2 .8954305 2 2s-.8954305 2-2 2h-1c-8.5808424-.00642009-16.20956874 5.46157404-18.95984387 13.5897278-2.75027513 8.1281538-.00914187 17.1049357 6.81259967 22.3101965 6.8217415 5.2052608 16.2037215 5.4788976 23.3172442.6800757.612706-.4306375 1.4146583-.4828861 2.0780611-.1353894.6634028.3474968 1.0770787 1.036503 1.0719389 1.7853894z" fill="#f0c419"/><circle id="Oval" cx="25" cy="24" fill="#67b9cc" r="16"/><path id="Path" d="m21 52h8c2.7614237 0 5 2.2385763 5 5 0 .5522847-.4477153 1-1 1h-16c-.5522847 0-1-.4477153-1-1 0-2.7614237 2.2385763-5 5-5z" fill="#f0c419"/><g fill="#24ae5f"><path id="Path" d="m30 23v2.292c.0003283.4656013-.1082287.924828-.317 1.341l-3.171 6.342c-.3139722.6280713-.9558233 1.0248731-1.658 1.025-1.0239359 0-1.854-.8300641-1.854-1.854v-5.146c0-.5522847-.4477153-1-1-1-1.6568542 0-3-1.3431458-3-3s1.3431458-3 3-3h5c1.6568542 0 3 1.3431458 3 3z"/><path id="Path" d="m40.72 21h-3.72c-1.1032019-.0032948-1.9967052-.8967981-2-2v-1.56c-.0020027-.8615814-.5531596-1.6259595-1.37-1.9-.9740236-.3227615-1.6311671-1.233893-1.63-2.26l-.0000016-3.67c4.5411144 2.2079895 7.7734645 6.4300614 8.7200016 11.39z"/><path id="Path" d="m23 8.13v3.57c0 2.3748244-1.9251756 4.3-4.3 4.3-.9459137-.0060203-1.7870542.6005715-2.08 1.5-.3012766.8976663-1.1431268 1.501865-2.09 1.5l-4.73.0000043c1.9324667-5.8678524 7.0704434-10.09889836 13.2-10.8700043z"/></g></g></g></svg>